<mxfile host="drawio-plugin" modified="2022-10-25T09:28:24.018Z" agent="5.0 (Windows NT 6.2; Win64; x64) AppleWebKit/537.36 (KHTML, like Gecko) Chrome/98.0.4758.102 Safari/537.36" etag="6KdDulUyaGD9ql12n3y-" version="15.5.4" type="embed" pages="2"><diagram id="Q6l59YQO14i8TXfoes17" name="Page-1"><mxGraphModel dx="1773" dy="1280" grid="1" gridSize="10" guides="1" tooltips="1" connect="1" arrows="1" fold="1" page="0" pageScale="1" pageWidth="1169" pageHeight="1654" background="none" math="0" shadow="0"><root><mxCell id="0"/><mxCell id="1" parent="0"/><mxCell id="node0" value="&lt;p style=&quot;margin:0px;margin-top:4px;text-align:center;&quot;&gt;&lt;b&gt;Battleship&lt;/b&gt;&lt;/p&gt;&lt;hr size=&quot;1&quot;/&gt;" style="verticalAlign=top;align=left;overflow=fill;fontSize=14;fontFamily=Helvetica;html=1;rounded=0;shadow=0;comic=0;labelBackgroundColor=none;strokeWidth=1;" parent="1" vertex="1"><mxGeometry x="265" y="160" width="116" height="80" as="geometry"/></mxCell><mxCell id="node11" value="&lt;p style=&quot;margin:0px;margin-top:4px;text-align:center;&quot;&gt;&lt;b&gt;Board&lt;/b&gt;&lt;/p&gt;&lt;hr size=&quot;1&quot;/&gt;" style="verticalAlign=top;align=left;overflow=fill;fontSize=14;fontFamily=Helvetica;html=1;rounded=0;shadow=0;comic=0;labelBackgroundColor=none;strokeWidth=1;" parent="1" vertex="1"><mxGeometry x="5.5" y="420" width="90" height="31" as="geometry"/></mxCell><mxCell id="node10" value="&lt;p style=&quot;margin:0px;margin-top:4px;text-align:center;&quot;&gt;&lt;b&gt;BoardFactory&lt;/b&gt;&lt;/p&gt;&lt;hr size=&quot;1&quot;/&gt;" style="verticalAlign=top;align=left;overflow=fill;fontSize=14;fontFamily=Helvetica;html=1;rounded=0;shadow=0;comic=0;labelBackgroundColor=none;strokeWidth=1;" parent="1" vertex="1"><mxGeometry y="240" width="138" height="31" as="geometry"/></mxCell><mxCell id="5" style="edgeStyle=orthogonalEdgeStyle;rounded=0;orthogonalLoop=1;jettySize=auto;html=1;entryX=0.5;entryY=0;entryDx=0;entryDy=0;" parent="1" source="node8" target="node9" edge="1"><mxGeometry relative="1" as="geometry"><mxPoint x="160" y="120" as="targetPoint"/></mxGeometry></mxCell><mxCell id="node8" value="&lt;p style=&quot;margin:0px;margin-top:4px;text-align:center;&quot;&gt;&lt;b&gt;ComputerPlayer&lt;/b&gt;&lt;/p&gt;&lt;hr size=&quot;1&quot;/&gt;" style="verticalAlign=top;align=left;overflow=fill;fontSize=14;fontFamily=Helvetica;html=1;rounded=0;shadow=0;comic=0;labelBackgroundColor=none;strokeWidth=1;" parent="1" vertex="1"><mxGeometry x="190" y="-40" width="156" height="91" as="geometry"/></mxCell><mxCell id="node2" value="&lt;p style=&quot;margin:0px;margin-top:4px;text-align:center;&quot;&gt;&lt;b&gt;Display&lt;/b&gt;&lt;/p&gt;&lt;hr size=&quot;1&quot;/&gt;" style="verticalAlign=top;align=left;overflow=fill;fontSize=14;fontFamily=Helvetica;html=1;rounded=0;shadow=0;comic=0;labelBackgroundColor=none;strokeWidth=1;" parent="1" vertex="1"><mxGeometry x="500" y="189" width="99" height="61" as="geometry"/></mxCell><mxCell id="node9" value="&lt;p style=&quot;margin:0px;margin-top:4px;text-align:center;&quot;&gt;&lt;b&gt;Game&lt;/b&gt;&lt;/p&gt;&lt;hr size=&quot;1&quot;/&gt;" style="verticalAlign=top;align=left;overflow=fill;fontSize=14;fontFamily=Helvetica;html=1;rounded=0;shadow=0;comic=0;labelBackgroundColor=none;strokeWidth=1;" parent="1" vertex="1"><mxGeometry x="120" y="100" width="89" height="58" as="geometry"/></mxCell><mxCell id="node1" value="&lt;p style=&quot;margin:0px;margin-top:4px;text-align:center;&quot;&gt;&lt;b&gt;Input&lt;/b&gt;&lt;/p&gt;&lt;hr size=&quot;1&quot;/&gt;" style="verticalAlign=top;align=left;overflow=fill;fontSize=14;fontFamily=Helvetica;html=1;rounded=0;shadow=0;comic=0;labelBackgroundColor=none;strokeWidth=1;" parent="1" vertex="1"><mxGeometry x="281" y="299" width="84" height="51" as="geometry"/></mxCell><mxCell id="6" style="edgeStyle=orthogonalEdgeStyle;rounded=0;orthogonalLoop=1;jettySize=auto;html=1;entryX=0.5;entryY=0;entryDx=0;entryDy=0;" parent="1" source="node7" target="node9" edge="1"><mxGeometry relative="1" as="geometry"><mxPoint x="160" y="130" as="targetPoint"/></mxGeometry></mxCell><mxCell id="node7" value="&lt;p style=&quot;margin:0px;margin-top:4px;text-align:center;&quot;&gt;&lt;b&gt;Player&lt;/b&gt;&lt;/p&gt;&lt;hr size=&quot;1&quot;/&gt;" style="verticalAlign=top;align=left;overflow=fill;fontSize=14;fontFamily=Helvetica;html=1;rounded=0;shadow=0;comic=0;labelBackgroundColor=none;strokeWidth=1;" parent="1" vertex="1"><mxGeometry x="70" y="-30" width="90" height="81" as="geometry"/></mxCell><mxCell id="node6" value="&lt;p style=&quot;margin:0px;margin-top:4px;text-align:center;&quot;&gt;&lt;b&gt;Ship&lt;/b&gt;&lt;/p&gt;&lt;hr size=&quot;1&quot;/&gt;&lt;p style=&quot;margin:0 0 0 4px;line-height:1.6;&quot;&gt;- shipType: ShipType&lt;br/&gt;- squares: List&amp;lt;Square&amp;gt;&lt;br/&gt;- isSunk: boolean&lt;/p&gt;" style="verticalAlign=top;align=left;overflow=fill;fontSize=14;fontFamily=Helvetica;html=1;rounded=0;shadow=0;comic=0;labelBackgroundColor=none;strokeWidth=1;" parent="1" vertex="1"><mxGeometry x="-191" y="80" width="162" height="125" as="geometry"/></mxCell><mxCell id="node5" value="&lt;p style=&quot;margin: 0px ; margin-top: 4px ; text-align: center&quot;&gt;&lt;i&gt;&amp;lt;&amp;lt;enumeration&amp;gt;&amp;gt;&lt;/i&gt;&lt;br&gt;&lt;b&gt;ShipType&lt;/b&gt;&lt;/p&gt;&lt;hr size=&quot;1&quot;&gt;&lt;p style=&quot;margin: 0 0 0 4px ; line-height: 1.6&quot;&gt;+ SUBMARINE: &lt;br&gt;+ BATTLESHIP: &lt;br&gt;+ CRUISER: &lt;br&gt;+ DESTROYER: &lt;br&gt;+ CARRIER: &lt;/p&gt;&lt;p style=&quot;margin: 0 0 0 4px ; line-height: 1.6&quot;&gt;- length: int&lt;br&gt;&lt;/p&gt;" style="verticalAlign=top;align=left;overflow=fill;fontSize=14;fontFamily=Helvetica;html=1;rounded=0;shadow=0;comic=0;labelBackgroundColor=none;strokeWidth=1;" parent="1" vertex="1"><mxGeometry x="-90" y="-158.5" width="121" height="200" as="geometry"/></mxCell><mxCell id="node4" value="&lt;p style=&quot;margin:0px;margin-top:4px;text-align:center;&quot;&gt;&lt;b&gt;Square&lt;/b&gt;&lt;/p&gt;&lt;hr size=&quot;1&quot;/&gt;&lt;p style=&quot;margin:0 0 0 4px;line-height:1.6;&quot;&gt;- squareStatus: SquareStatus&lt;/p&gt;" style="verticalAlign=top;align=left;overflow=fill;fontSize=14;fontFamily=Helvetica;html=1;rounded=0;shadow=0;comic=0;labelBackgroundColor=none;strokeWidth=1;" parent="1" vertex="1"><mxGeometry x="-200" y="330" width="187" height="65" as="geometry"/></mxCell><mxCell id="node3" value="&lt;p style=&quot;margin: 0px ; margin-top: 4px ; text-align: center&quot;&gt;&lt;i&gt;&amp;lt;&amp;lt;enumeration&amp;gt;&amp;gt;&lt;/i&gt;&lt;br&gt;&lt;b&gt;SquareStatus&lt;/b&gt;&lt;/p&gt;&lt;hr size=&quot;1&quot;&gt;&lt;p style=&quot;margin: 0 0 0 4px ; line-height: 1.6&quot;&gt;+ EMPTY: &lt;br&gt;+ DESTROYED: &lt;br&gt;+ SHIP: &lt;br&gt;+ MISSED: &lt;br&gt;+ HIT: &lt;/p&gt;&lt;p style=&quot;margin: 0 0 0 4px ; line-height: 1.6&quot;&gt;- statusChar: char&lt;br&gt;&lt;/p&gt;" style="verticalAlign=top;align=left;overflow=fill;fontSize=14;fontFamily=Helvetica;html=1;rounded=0;shadow=0;comic=0;labelBackgroundColor=none;strokeWidth=1;" parent="1" vertex="1"><mxGeometry x="-260" y="-158.5" width="138" height="200" as="geometry"/></mxCell><mxCell id="edge2" value="" style="html=1;rounded=1;edgeStyle=orthogonalEdgeStyle;dashed=0;startArrow=diamondThinstartSize=12;endArrow=openThin;endSize=12;strokeColor=#666666;exitX=0.520;exitY=1.000;exitDx=0;exitDy=0;entryX=0.500;entryY=0.000;entryDx=0;entryDy=0;fillColor=#f5f5f5;" parent="1" source="node6" target="node4" edge="1"><mxGeometry width="50" height="50" relative="1" as="geometry"><Array as="points"/></mxGeometry></mxCell><mxCell id="label12" value="1" style="edgeLabel;resizable=0;html=1;align=left;verticalAlign=top;strokeColor=default;" parent="edge2" vertex="1" connectable="0"><mxGeometry x="-120" y="209" as="geometry"/></mxCell><mxCell id="label16" value="*" style="edgeLabel;resizable=0;html=1;align=left;verticalAlign=top;strokeColor=default;" parent="edge2" vertex="1" connectable="0"><mxGeometry x="-100" y="310" as="geometry"/></mxCell><mxCell id="label17" value="squares" style="edgeLabel;resizable=0;html=1;align=left;verticalAlign=top;strokeColor=default;" parent="edge2" vertex="1" connectable="0"><mxGeometry x="-140" y="270" as="geometry"><mxPoint x="13" y="-10" as="offset"/></mxGeometry></mxCell><mxCell id="p0H7NBt3vFVId9DGyix4-2" value="Use" style="endArrow=open;endSize=12;dashed=1;html=1;rounded=0;exitX=0.5;exitY=0;exitDx=0;exitDy=0;entryX=1.007;entryY=0.608;entryDx=0;entryDy=0;entryPerimeter=0;" parent="1" source="node0" target="node9" edge="1"><mxGeometry width="160" relative="1" as="geometry"><mxPoint x="270" y="213" as="sourcePoint"/><mxPoint x="430" y="213" as="targetPoint"/></mxGeometry></mxCell><mxCell id="2" value="Use" style="endArrow=open;endSize=12;dashed=1;html=1;rounded=0;exitX=1;exitY=0.5;exitDx=0;exitDy=0;entryX=0;entryY=0.5;entryDx=0;entryDy=0;" parent="1" source="node0" target="node2" edge="1"><mxGeometry width="160" relative="1" as="geometry"><mxPoint x="80" y="170" as="sourcePoint"/><mxPoint x="240" y="170" as="targetPoint"/></mxGeometry></mxCell><mxCell id="3" value="Use" style="endArrow=open;endSize=12;dashed=1;html=1;rounded=0;exitX=0.5;exitY=1;exitDx=0;exitDy=0;entryX=0.5;entryY=0;entryDx=0;entryDy=0;" parent="1" source="node0" target="node1" edge="1"><mxGeometry x="-0.2405" width="160" relative="1" as="geometry"><mxPoint x="80" y="170" as="sourcePoint"/><mxPoint x="380" y="270" as="targetPoint"/><mxPoint y="-1" as="offset"/></mxGeometry></mxCell><mxCell id="7" value="1" style="endArrow=open;html=1;endSize=12;startArrow=diamondThin;startSize=14;startFill=1;edgeStyle=orthogonalEdgeStyle;align=left;verticalAlign=bottom;rounded=0;entryX=1;entryY=0.5;entryDx=0;entryDy=0;exitX=0.553;exitY=1.023;exitDx=0;exitDy=0;exitPerimeter=0;" parent="1" source="node9" target="node11" edge="1"><mxGeometry x="-0.9497" y="27" relative="1" as="geometry"><mxPoint x="110" y="230" as="sourcePoint"/><mxPoint x="60" y="446" as="targetPoint"/><Array as="points"><mxPoint x="169" y="170"/><mxPoint x="170" y="170"/><mxPoint x="170" y="436"/></Array><mxPoint as="offset"/></mxGeometry></mxCell><mxCell id="8" value="0...2" style="text;html=1;align=center;verticalAlign=middle;resizable=0;points=[];autosize=1;strokeColor=none;fillColor=none;" parent="1" vertex="1"><mxGeometry x="400" y="169" width="40" height="20" as="geometry"/></mxCell><mxCell id="10" value="Jak ma to wyglądać??" style="text;html=1;align=center;verticalAlign=middle;resizable=0;points=[];autosize=1;strokeColor=none;fillColor=none;" parent="1" vertex="1"><mxGeometry x="350" y="132.5" width="130" height="20" as="geometry"/></mxCell><mxCell id="13" value="1" style="endArrow=open;html=1;endSize=12;startArrow=diamondThin;startSize=14;startFill=1;edgeStyle=orthogonalEdgeStyle;align=left;verticalAlign=bottom;rounded=0;exitX=-0.013;exitY=0.516;exitDx=0;exitDy=0;exitPerimeter=0;entryX=0.5;entryY=1;entryDx=0;entryDy=0;" parent="1" source="node11" target="node4" edge="1"><mxGeometry x="-0.5478" y="24" relative="1" as="geometry"><mxPoint y="430" as="sourcePoint"/><mxPoint x="80" y="380" as="targetPoint"/><Array as="points"><mxPoint x="-106" y="436"/></Array><mxPoint as="offset"/></mxGeometry></mxCell></root></mxGraphModel></diagram><diagram id="HrYjf_wjwYbqRtCSqKP7" name="Page-2"><mxGraphModel dx="996" dy="528" grid="1" gridSize="10" guides="1" tooltips="1" connect="1" arrows="1" fold="1" page="1" pageScale="1" pageWidth="850" pageHeight="1100" math="0" shadow="0"><root><mxCell id="LI54TFqoYShOlpABuW5D-0"/><mxCell id="LI54TFqoYShOlpABuW5D-1" parent="LI54TFqoYShOlpABuW5D-0"/><mxCell id="LI54TFqoYShOlpABuW5D-2" value="&lt;p style=&quot;margin:0px;margin-top:4px;text-align:center;&quot;&gt;&lt;b&gt;Battleship&lt;/b&gt;&lt;/p&gt;&lt;hr size=&quot;1&quot;/&gt;" style="verticalAlign=top;align=left;overflow=fill;fontSize=14;fontFamily=Helvetica;html=1;rounded=0;shadow=0;comic=0;labelBackgroundColor=none;strokeWidth=1;" vertex="1" parent="LI54TFqoYShOlpABuW5D-1"><mxGeometry x="604" y="379.75" width="116" height="31.5" as="geometry"/></mxCell><mxCell id="LI54TFqoYShOlpABuW5D-3" value="&lt;p style=&quot;margin:0px;margin-top:4px;text-align:center;&quot;&gt;&lt;b&gt;Board&lt;/b&gt;&lt;/p&gt;&lt;hr size=&quot;1&quot;/&gt;" style="verticalAlign=top;align=left;overflow=fill;fontSize=14;fontFamily=Helvetica;html=1;rounded=0;shadow=0;comic=0;labelBackgroundColor=none;strokeWidth=1;" vertex="1" parent="LI54TFqoYShOlpABuW5D-1"><mxGeometry x="330" y="650" width="90" height="31" as="geometry"/></mxCell><mxCell id="LI54TFqoYShOlpABuW5D-4" value="&lt;p style=&quot;margin:0px;margin-top:4px;text-align:center;&quot;&gt;&lt;b&gt;BoardFactory&lt;/b&gt;&lt;/p&gt;&lt;hr size=&quot;1&quot;/&gt;" style="verticalAlign=top;align=left;overflow=fill;fontSize=14;fontFamily=Helvetica;html=1;rounded=0;shadow=0;comic=0;labelBackgroundColor=none;strokeWidth=1;" vertex="1" parent="LI54TFqoYShOlpABuW5D-1"><mxGeometry x="340" y="460" width="138" height="31" as="geometry"/></mxCell><mxCell id="LI54TFqoYShOlpABuW5D-5" style="edgeStyle=orthogonalEdgeStyle;rounded=0;orthogonalLoop=1;jettySize=auto;html=1;entryX=0.5;entryY=0;entryDx=0;entryDy=0;" edge="1" parent="LI54TFqoYShOlpABuW5D-1" source="LI54TFqoYShOlpABuW5D-6" target="LI54TFqoYShOlpABuW5D-8"><mxGeometry relative="1" as="geometry"><mxPoint x="490" y="378.5" as="targetPoint"/></mxGeometry></mxCell><mxCell id="LI54TFqoYShOlpABuW5D-6" value="&lt;p style=&quot;margin:0px;margin-top:4px;text-align:center;&quot;&gt;&lt;b&gt;ComputerPlayer&lt;/b&gt;&lt;/p&gt;&lt;hr size=&quot;1&quot;/&gt;" style="verticalAlign=top;align=left;overflow=fill;fontSize=14;fontFamily=Helvetica;html=1;rounded=0;shadow=0;comic=0;labelBackgroundColor=none;strokeWidth=1;" vertex="1" parent="LI54TFqoYShOlpABuW5D-1"><mxGeometry x="584" y="300" width="156" height="31.5" as="geometry"/></mxCell><mxCell id="LI54TFqoYShOlpABuW5D-7" value="&lt;p style=&quot;margin:0px;margin-top:4px;text-align:center;&quot;&gt;&lt;b&gt;Display&lt;/b&gt;&lt;/p&gt;&lt;hr size=&quot;1&quot;/&gt;" style="verticalAlign=top;align=left;overflow=fill;fontSize=14;fontFamily=Helvetica;html=1;rounded=0;shadow=0;comic=0;labelBackgroundColor=none;strokeWidth=1;" vertex="1" parent="LI54TFqoYShOlpABuW5D-1"><mxGeometry x="760" y="365" width="99" height="61" as="geometry"/></mxCell><mxCell id="LI54TFqoYShOlpABuW5D-8" value="&lt;p style=&quot;margin:0px;margin-top:4px;text-align:center;&quot;&gt;&lt;b&gt;Game&lt;/b&gt;&lt;/p&gt;&lt;hr size=&quot;1&quot;/&gt;" style="verticalAlign=top;align=left;overflow=fill;fontSize=14;fontFamily=Helvetica;html=1;rounded=0;shadow=0;comic=0;labelBackgroundColor=none;strokeWidth=1;" vertex="1" parent="LI54TFqoYShOlpABuW5D-1"><mxGeometry x="440" y="358.5" width="89" height="58" as="geometry"/></mxCell><mxCell id="LI54TFqoYShOlpABuW5D-9" value="&lt;p style=&quot;margin:0px;margin-top:4px;text-align:center;&quot;&gt;&lt;b&gt;Input&lt;/b&gt;&lt;/p&gt;&lt;hr size=&quot;1&quot;/&gt;" style="verticalAlign=top;align=left;overflow=fill;fontSize=14;fontFamily=Helvetica;html=1;rounded=0;shadow=0;comic=0;labelBackgroundColor=none;strokeWidth=1;" vertex="1" parent="LI54TFqoYShOlpABuW5D-1"><mxGeometry x="620" y="491" width="84" height="51" as="geometry"/></mxCell><mxCell id="LI54TFqoYShOlpABuW5D-10" style="edgeStyle=orthogonalEdgeStyle;rounded=0;orthogonalLoop=1;jettySize=auto;html=1;entryX=0.5;entryY=0;entryDx=0;entryDy=0;" edge="1" parent="LI54TFqoYShOlpABuW5D-1" source="LI54TFqoYShOlpABuW5D-11" target="LI54TFqoYShOlpABuW5D-8"><mxGeometry relative="1" as="geometry"><mxPoint x="490" y="388.5" as="targetPoint"/></mxGeometry></mxCell><mxCell id="LI54TFqoYShOlpABuW5D-11" value="&lt;p style=&quot;margin:0px;margin-top:4px;text-align:center;&quot;&gt;&lt;b&gt;Player&lt;/b&gt;&lt;/p&gt;&lt;hr size=&quot;1&quot;/&gt;" style="verticalAlign=top;align=left;overflow=fill;fontSize=14;fontFamily=Helvetica;html=1;rounded=0;shadow=0;comic=0;labelBackgroundColor=none;strokeWidth=1;" vertex="1" parent="LI54TFqoYShOlpABuW5D-1"><mxGeometry x="340" y="320" width="90" height="31.5" as="geometry"/></mxCell><mxCell id="LI54TFqoYShOlpABuW5D-12" value="&lt;p style=&quot;margin: 0px ; margin-top: 4px ; text-align: center&quot;&gt;&lt;b&gt;Ship&lt;/b&gt;&lt;/p&gt;&lt;hr size=&quot;1&quot;&gt;&lt;p style=&quot;margin: 0 0 0 4px ; line-height: 1.6&quot;&gt;&lt;br&gt;&lt;/p&gt;" style="verticalAlign=top;align=left;overflow=fill;fontSize=14;fontFamily=Helvetica;html=1;rounded=0;shadow=0;comic=0;labelBackgroundColor=none;strokeWidth=1;" vertex="1" parent="LI54TFqoYShOlpABuW5D-1"><mxGeometry x="130" y="431.75" width="162" height="43.5" as="geometry"/></mxCell><mxCell id="LI54TFqoYShOlpABuW5D-13" value="&lt;p style=&quot;margin: 0px ; margin-top: 4px ; text-align: center&quot;&gt;&lt;i&gt;&amp;lt;&amp;lt;enumeration&amp;gt;&amp;gt;&lt;/i&gt;&lt;br&gt;&lt;b&gt;ShipType&lt;/b&gt;&lt;/p&gt;&lt;hr size=&quot;1&quot;&gt;&lt;p style=&quot;margin: 0 0 0 4px ; line-height: 1.6&quot;&gt;+ SUBMARINE: &lt;br&gt;+ BATTLESHIP: &lt;br&gt;+ CRUISER: &lt;br&gt;+ DESTROYER: &lt;br&gt;+ CARRIER: &lt;/p&gt;&lt;p style=&quot;margin: 0 0 0 4px ; line-height: 1.6&quot;&gt;- length: int&lt;br&gt;&lt;/p&gt;" style="verticalAlign=top;align=left;overflow=fill;fontSize=14;fontFamily=Helvetica;html=1;rounded=0;shadow=0;comic=0;labelBackgroundColor=none;strokeWidth=1;" vertex="1" parent="LI54TFqoYShOlpABuW5D-1"><mxGeometry x="240" y="100" width="121" height="200" as="geometry"/></mxCell><mxCell id="LI54TFqoYShOlpABuW5D-14" value="&lt;p style=&quot;margin: 0px ; margin-top: 4px ; text-align: center&quot;&gt;&lt;b&gt;Square&lt;/b&gt;&lt;/p&gt;&lt;hr size=&quot;1&quot;&gt;&lt;p style=&quot;margin: 0 0 0 4px ; line-height: 1.6&quot;&gt;&lt;br&gt;&lt;/p&gt;" style="verticalAlign=top;align=left;overflow=fill;fontSize=14;fontFamily=Helvetica;html=1;rounded=0;shadow=0;comic=0;labelBackgroundColor=none;strokeWidth=1;" vertex="1" parent="LI54TFqoYShOlpABuW5D-1"><mxGeometry x="117.5" y="610" width="187" height="31.5" as="geometry"/></mxCell><mxCell id="LI54TFqoYShOlpABuW5D-15" value="&lt;p style=&quot;margin: 0px ; margin-top: 4px ; text-align: center&quot;&gt;&lt;i&gt;&amp;lt;&amp;lt;enumeration&amp;gt;&amp;gt;&lt;/i&gt;&lt;br&gt;&lt;b&gt;SquareStatus&lt;/b&gt;&lt;/p&gt;&lt;hr size=&quot;1&quot;&gt;&lt;p style=&quot;margin: 0 0 0 4px ; line-height: 1.6&quot;&gt;+ EMPTY: &lt;br&gt;+ DESTROYED: &lt;br&gt;+ SHIP: &lt;br&gt;+ MISSED: &lt;br&gt;+ HIT: &lt;/p&gt;&lt;p style=&quot;margin: 0 0 0 4px ; line-height: 1.6&quot;&gt;- statusChar: char&lt;br&gt;&lt;/p&gt;" style="verticalAlign=top;align=left;overflow=fill;fontSize=14;fontFamily=Helvetica;html=1;rounded=0;shadow=0;comic=0;labelBackgroundColor=none;strokeWidth=1;" vertex="1" parent="LI54TFqoYShOlpABuW5D-1"><mxGeometry x="70" y="100" width="138" height="200" as="geometry"/></mxCell><mxCell id="LI54TFqoYShOlpABuW5D-16" value="" style="html=1;rounded=1;edgeStyle=orthogonalEdgeStyle;dashed=0;startArrow=diamondThinstartSize=12;endArrow=openThin;endSize=12;strokeColor=#FFFFFF;exitX=0.520;exitY=1.000;exitDx=0;exitDy=0;entryX=0.500;entryY=0.000;entryDx=0;entryDy=0;fillColor=#eeeeee;" edge="1" parent="LI54TFqoYShOlpABuW5D-1" source="LI54TFqoYShOlpABuW5D-12" target="LI54TFqoYShOlpABuW5D-14"><mxGeometry width="50" height="50" relative="1" as="geometry"><Array as="points"/></mxGeometry></mxCell><mxCell id="LI54TFqoYShOlpABuW5D-20" value="Use" style="endArrow=open;endSize=12;dashed=1;html=1;rounded=0;entryX=1.007;entryY=0.608;entryDx=0;entryDy=0;entryPerimeter=0;" edge="1" parent="LI54TFqoYShOlpABuW5D-1" target="LI54TFqoYShOlpABuW5D-8"><mxGeometry width="160" relative="1" as="geometry"><mxPoint x="600" y="394" as="sourcePoint"/><mxPoint x="760" y="471.5" as="targetPoint"/></mxGeometry></mxCell><mxCell id="LI54TFqoYShOlpABuW5D-21" value="Use" style="endArrow=open;endSize=12;dashed=1;html=1;rounded=0;exitX=1;exitY=0.5;exitDx=0;exitDy=0;entryX=0;entryY=0.5;entryDx=0;entryDy=0;" edge="1" parent="LI54TFqoYShOlpABuW5D-1" source="LI54TFqoYShOlpABuW5D-2" target="LI54TFqoYShOlpABuW5D-7"><mxGeometry width="160" relative="1" as="geometry"><mxPoint x="410" y="428.5" as="sourcePoint"/><mxPoint x="570" y="428.5" as="targetPoint"/></mxGeometry></mxCell><mxCell id="LI54TFqoYShOlpABuW5D-22" value="Use" style="endArrow=open;endSize=12;dashed=1;html=1;rounded=0;exitX=0.5;exitY=1;exitDx=0;exitDy=0;entryX=0.5;entryY=0;entryDx=0;entryDy=0;" edge="1" parent="LI54TFqoYShOlpABuW5D-1" source="LI54TFqoYShOlpABuW5D-2" target="LI54TFqoYShOlpABuW5D-9"><mxGeometry x="-0.2405" width="160" relative="1" as="geometry"><mxPoint x="410" y="428.5" as="sourcePoint"/><mxPoint x="642" y="540" as="targetPoint"/><mxPoint y="-1" as="offset"/></mxGeometry></mxCell><mxCell id="LI54TFqoYShOlpABuW5D-23" value="1" style="endArrow=open;html=1;endSize=12;startArrow=diamondThin;startSize=14;startFill=1;edgeStyle=orthogonalEdgeStyle;align=left;verticalAlign=bottom;rounded=0;entryX=0.5;entryY=0;entryDx=0;entryDy=0;exitX=0.5;exitY=1;exitDx=0;exitDy=0;" edge="1" parent="LI54TFqoYShOlpABuW5D-1" source="LI54TFqoYShOlpABuW5D-4" target="LI54TFqoYShOlpABuW5D-3"><mxGeometry x="-0.8003" y="10" relative="1" as="geometry"><mxPoint x="440" y="488.5" as="sourcePoint"/><mxPoint x="390" y="704.5" as="targetPoint"/><Array as="points"><mxPoint x="409" y="529"/><mxPoint x="375" y="529"/></Array><mxPoint as="offset"/></mxGeometry></mxCell><mxCell id="LI54TFqoYShOlpABuW5D-24" value="0...2" style="text;html=1;align=center;verticalAlign=middle;resizable=0;points=[];autosize=1;strokeColor=none;fillColor=none;" vertex="1" parent="LI54TFqoYShOlpABuW5D-1"><mxGeometry x="750" y="431.75" width="40" height="20" as="geometry"/></mxCell><mxCell id="LI54TFqoYShOlpABuW5D-25" value="Jak ma to wyglądać??" style="text;html=1;align=center;verticalAlign=middle;resizable=0;points=[];autosize=1;strokeColor=none;fillColor=none;" vertex="1" parent="LI54TFqoYShOlpABuW5D-1"><mxGeometry x="729" y="460" width="130" height="20" as="geometry"/></mxCell><mxCell id="LI54TFqoYShOlpABuW5D-26" value="1" style="endArrow=open;html=1;endSize=12;startArrow=diamondThin;startSize=14;startFill=1;edgeStyle=orthogonalEdgeStyle;align=left;verticalAlign=bottom;rounded=0;exitX=-0.013;exitY=0.516;exitDx=0;exitDy=0;exitPerimeter=0;entryX=0.5;entryY=1;entryDx=0;entryDy=0;" edge="1" parent="LI54TFqoYShOlpABuW5D-1" source="LI54TFqoYShOlpABuW5D-3" target="LI54TFqoYShOlpABuW5D-14"><mxGeometry x="-0.5478" y="24" relative="1" as="geometry"><mxPoint x="330" y="688.5" as="sourcePoint"/><mxPoint x="410" y="638.5" as="targetPoint"/><Array as="points"><mxPoint x="224" y="694.5"/></Array><mxPoint as="offset"/></mxGeometry></mxCell><mxCell id="LI54TFqoYShOlpABuW5D-27" value="Use" style="endArrow=open;endSize=12;dashed=1;html=1;rounded=0;exitX=0.451;exitY=0.944;exitDx=0;exitDy=0;exitPerimeter=0;entryX=0.5;entryY=1;entryDx=0;entryDy=0;" edge="1" parent="LI54TFqoYShOlpABuW5D-1" source="LI54TFqoYShOlpABuW5D-8" target="LI54TFqoYShOlpABuW5D-3"><mxGeometry width="160" relative="1" as="geometry"><mxPoint x="490" y="420" as="sourcePoint"/><mxPoint x="540" y="620" as="targetPoint"/><Array as="points"><mxPoint x="480" y="440"/><mxPoint x="540" y="440"/><mxPoint x="540" y="720"/><mxPoint x="375" y="720"/></Array></mxGeometry></mxCell></root></mxGraphModel></diagram></mxfile>